<svg xmlns="http://www.w3.org/2000/svg" xmlns:xlink="http://www.w3.org/1999/xlink" viewBox="0,0,255.98959,255.98959" width="16px" height="16px"><g fill="#000000" fill-rule="nonzero" stroke="none" stroke-width="1" stroke-linecap="butt" stroke-linejoin="miter" stroke-miterlimit="10" stroke-dasharray="" stroke-dashoffset="0" font-family="none" font-weight="none" font-size="none" text-anchor="none" style="mix-blend-mode: normal"><g transform="scale(4,4)"><path d="M8.68359,6.95117c-1.6718,-0.00158 -2.68359,0.04883 -2.68359,0.04883v6.12891c-2.49,0.452 -4,0.87109 -4,0.87109v42c0,0 11.86163,-3.53637 25,-1.17773v2.17773c0,0 2,1 5,1c3,0 5,-1 5,-1v-2.17773c13.13837,-2.35864 25,1.17773 25,1.17773v-42c0,0 -1.51,-0.41909 -4,-0.87109v-6.12891c0,0 -16.199,-0.80628 -26,4.13672c-7.35075,-3.70725 -18.30102,-4.18081 -23.31641,-4.18555zM9,11c12.06423,0 18.20672,1.78171 21,2.9668v32.0332l4,-1v-31.0332c2.79328,-1.18508 8.93577,-2.9668 21,-2.9668v37c-18,0 -23,4 -23,4c0,0 -5,-4 -23,-4z"></path></g></g></svg>